<?xml version="1.0" encoding="utf-8"?>
<!-- Generator: Adobe Illustrator 19.1.1, SVG Export Plug-In . SVG Version: 6.00 Build 0)  -->
<svg version="1.1" xmlns="http://www.w3.org/2000/svg" xmlns:xlink="http://www.w3.org/1999/xlink" x="0px" y="0px"
	 viewBox="0 0 786.868 537.831" enable-background="new 0 0 786.868 537.831" xml:space="preserve">
<g id="Gold">
	<g id="Capa_1">
		<g>
			<path fill="#C99C44" d="M105.571,142.143c-21.82,0-39.571-17.752-39.571-39.572S83.751,63,105.571,63
				s39.572,17.751,39.572,39.571S127.391,142.143,105.571,142.143z"/>
			<path fill="#9E7835" d="M105.571,64c21.302,0,38.571,17.269,38.571,38.571s-17.269,38.571-38.571,38.571S67,123.874,67,102.571
				S84.269,64,105.571,64 M105.571,62C83.2,62,65,80.2,65,102.571s18.2,40.571,40.571,40.571s40.571-18.2,40.571-40.571
				S127.943,62,105.571,62L105.571,62z"/>
		</g>
		<circle opacity="0.75" fill="#C99C44" cx="105.571" cy="102.571" r="29.25"/>
		<path fill="#C99C44" d="M134.82,102.57c0,0.17,0,0.33-0.01,0.5c-0.26-15.92-13.25-28.75-29.24-28.75
			c-15.98,0-28.98,12.83-29.24,28.75c-0.01-0.17-0.01-0.33-0.01-0.5c0-16.15,13.1-29.25,29.25-29.25
			C121.73,73.32,134.82,86.42,134.82,102.57z"/>
		<path opacity="0.75" fill="#FFFFFF" d="M134.82,103.57c0,16.16-13.09,29.25-29.25,29.25c-16.15,0-29.25-13.09-29.25-29.25
			c0-0.17,0-0.34,0.01-0.5c0.26,15.93,13.26,28.75,29.24,28.75c15.99,0,28.98-12.82,29.24-28.75
			C134.82,103.23,134.82,103.4,134.82,103.57z"/>
		<path fill="#C99C44" d="M105.57,126.625L105.57,126.625c-3.609,0-6.563-2.953-6.563-6.562V87.187c0-3.609,2.953-6.562,6.562-6.562
			h0c3.609,0,6.562,2.953,6.562,6.562v32.875C112.133,123.672,109.179,126.625,105.57,126.625z"/>
		<path fill="#C99C44" d="M112.13,87.19v32.87c0,3.61-2.95,6.56-6.56,6.56c-0.17,0-0.34-0.01-0.5-0.02c3.38-0.26,6.06-3.1,6.06-6.54
			V87.19c0-1.81-0.74-3.45-1.93-4.64c-1.07-1.08-2.52-1.79-4.13-1.91c0.16-0.01,0.33-0.02,0.5-0.02c1.81,0,3.45,0.74,4.63,1.93
			C111.39,83.74,112.13,85.38,112.13,87.19z"/>
		<path fill="#C99C44" d="M107.341,83.98c-0.475-0.104-0.981-0.129-1.501-0.063c-1.85,0.233-3.392,1.715-3.691,3.556
			c-0.086,0.527-0.075,1.042,0.017,1.528c0.097,0.511-0.529,0.853-0.87,0.46c-0.848-0.977-1.281-2.327-1.04-3.772
			c0.311-1.861,1.829-3.375,3.691-3.683c1.491-0.247,2.881,0.227,3.865,1.131C108.189,83.483,107.84,84.089,107.341,83.98z"/>
	</g>
	<g id="Capa_1_copia_7" display="none">
		<g display="inline">
			<path fill="#C99C44" d="M771.571,142.143c-21.82,0-39.571-17.752-39.571-39.572S749.751,63,771.571,63
				s39.572,17.751,39.572,39.571S793.391,142.143,771.571,142.143z"/>
			<path fill="#9E7835" d="M771.571,64c21.302,0,38.571,17.269,38.571,38.571s-17.269,38.571-38.571,38.571
				c-21.302,0-38.571-17.269-38.571-38.571S750.269,64,771.571,64 M771.571,62C749.2,62,731,80.2,731,102.571
				s18.2,40.571,40.571,40.571s40.571-18.2,40.571-40.571S793.943,62,771.571,62L771.571,62z"/>
		</g>
		<circle display="inline" opacity="0.75" fill="#C99C44" cx="771.571" cy="102.571" r="29.25"/>
		<path display="inline" fill="#C99C44" d="M800.82,102.57c0,0.17,0,0.33-0.01,0.5c-0.26-15.92-13.25-28.75-29.24-28.75
			c-15.98,0-28.98,12.83-29.24,28.75c-0.01-0.17-0.01-0.33-0.01-0.5c0-16.15,13.1-29.25,29.25-29.25
			C787.73,73.32,800.82,86.42,800.82,102.57z"/>
		<path display="inline" opacity="0.75" fill="#FFFFFF" d="M800.82,103.57c0,16.16-13.09,29.25-29.25,29.25
			c-16.15,0-29.25-13.09-29.25-29.25c0-0.17,0-0.34,0.01-0.5c0.26,15.93,13.26,28.75,29.24,28.75c15.99,0,28.98-12.82,29.24-28.75
			C800.82,103.23,800.82,103.4,800.82,103.57z"/>
		<path display="inline" fill="#C99C44" d="M771.57,126.625L771.57,126.625c-3.609,0-6.563-2.953-6.563-6.562V87.187
			c0-3.609,2.953-6.562,6.563-6.562l0,0c3.609,0,6.563,2.953,6.563,6.562v32.875C778.133,123.672,775.179,126.625,771.57,126.625z"
			/>
		<path display="inline" fill="#C99C44" d="M778.13,87.19v32.87c0,3.61-2.95,6.56-6.56,6.56c-0.17,0-0.34-0.01-0.5-0.02
			c3.38-0.26,6.06-3.1,6.06-6.54V87.19c0-1.81-0.74-3.45-1.93-4.64c-1.07-1.08-2.52-1.79-4.13-1.91c0.16-0.01,0.33-0.02,0.5-0.02
			c1.81,0,3.45,0.74,4.63,1.93C777.39,83.74,778.13,85.38,778.13,87.19z"/>
		<path display="inline" fill="#C99C44" d="M773.341,83.98c-0.475-0.104-0.981-0.129-1.501-0.063
			c-1.851,0.233-3.392,1.715-3.691,3.556c-0.086,0.527-0.075,1.041,0.017,1.528c0.097,0.511-0.529,0.853-0.87,0.46
			c-0.848-0.977-1.281-2.327-1.04-3.771c0.311-1.861,1.829-3.375,3.691-3.683c1.491-0.247,2.881,0.227,3.865,1.131
			C774.189,83.483,773.84,84.089,773.341,83.98z"/>
	</g>
	<g id="Capa_1_copia">
		<g id="Capa_3">
			<g>
				<path fill="#A9813F" d="M211.458,142.143c-19.965,0-36.208-17.752-36.208-39.572S191.493,63,211.458,63
					s36.208,17.751,36.208,39.571S231.424,142.143,211.458,142.143z"/>
				<g>
					<path fill="#6E5327" d="M211.458,64c19.445,0,35.208,17.269,35.208,38.571s-15.763,38.571-35.208,38.571
						s-35.208-17.269-35.208-38.571S192.013,64,211.458,64 M211.458,62c-20.517,0-37.208,18.2-37.208,40.571
						s16.692,40.571,37.208,40.571s37.208-18.2,37.208-40.571S231.975,62,211.458,62L211.458,62z"/>
				</g>
			</g>
			<g>
				<path fill="#C99C44" d="M206.458,142.143c-19.965,0-36.208-17.752-36.208-39.572S186.493,63,206.458,63
					s36.208,17.751,36.208,39.571S226.424,142.143,206.458,142.143z"/>
				<g>
					<path fill="#9E7835" d="M206.458,64c19.445,0,35.208,17.269,35.208,38.571s-15.763,38.571-35.208,38.571
						s-35.208-17.269-35.208-38.571S187.013,64,206.458,64 M206.458,62c-20.517,0-37.208,18.2-37.208,40.571
						s16.692,40.571,37.208,40.571s37.208-18.2,37.208-40.571S226.975,62,206.458,62L206.458,62z"/>
				</g>
			</g>
			<ellipse opacity="0.75" fill="#C99C44" cx="206.458" cy="102.571" rx="26.7" ry="29.25"/>
			<path fill="#C99C44" d="M233.157,102.57c0,0.17,0,0.33-0.009,0.5c-0.237-15.92-12.095-28.75-26.691-28.75
				c-14.587,0-26.453,12.83-26.691,28.75c-0.009-0.17-0.009-0.33-0.009-0.5c0-16.15,11.958-29.25,26.7-29.25
				C221.208,73.32,233.157,86.42,233.157,102.57z"/>
			<path opacity="0.75" fill="#FFFFFF" d="M233.157,103.57c0,16.16-11.949,29.25-26.7,29.25c-14.742,0-26.7-13.09-26.7-29.25
				c0-0.17,0-0.34,0.009-0.5c0.237,15.93,12.104,28.75,26.691,28.75c14.596,0,26.453-12.82,26.691-28.75
				C233.157,103.23,233.157,103.4,233.157,103.57z"/>
		</g>
		<path fill="#C99C44" d="M206.457,126.625L206.457,126.625c-3.295,0-5.99-2.696-5.99-5.99V86.615c0-3.295,2.696-5.99,5.99-5.99h0
			c3.295,0,5.99,2.696,5.99,5.99v34.019C212.447,123.929,209.752,126.625,206.457,126.625z"/>
		<path fill="#C99C44" d="M212.45,86.62v34.01c0,3.3-2.7,6-5.99,6c-0.34,0-0.67-0.03-1-0.09c2.82-0.48,4.99-2.95,4.99-5.91V86.62
			c0-1.65-0.67-3.15-1.76-4.23c-0.86-0.86-1.98-1.46-3.23-1.67c0.33-0.06,0.66-0.09,1-0.09c1.64,0,3.14,0.67,4.23,1.76
			C211.78,83.47,212.45,84.97,212.45,86.62z"/>
		<path fill="#C99C44" d="M206.903,83.98c-0.356-0.104-0.735-0.129-1.125-0.063c-1.386,0.233-2.541,1.715-2.765,3.556
			c-0.064,0.527-0.056,1.042,0.013,1.528c0.072,0.511-0.396,0.853-0.651,0.46c-0.635-0.977-0.96-2.327-0.779-3.771
			c0.233-1.861,1.37-3.375,2.765-3.683c1.117-0.247,2.158,0.227,2.895,1.131C207.538,83.483,207.277,84.089,206.903,83.98z"/>
	</g>
	<g id="Capa_1_copia_2">
		<g>
			<path fill="#A9813F" d="M311.458,142.143c-17.208,0-31.208-17.752-31.208-39.572S294.25,63,311.458,63
				c17.209,0,31.209,17.751,31.209,39.571S328.667,142.143,311.458,142.143z"/>
			<g>
				<path fill="#6E5327" d="M311.458,64c16.684,0,30.208,17.269,30.208,38.571s-13.525,38.571-30.208,38.571
					c-16.684,0-30.208-17.269-30.208-38.571S294.775,64,311.458,64 M311.458,62c-17.76,0-32.208,18.2-32.208,40.571
					s14.449,40.571,32.208,40.571s32.208-18.2,32.208-40.571S329.218,62,311.458,62L311.458,62z"/>
			</g>
		</g>
		<g id="Capa_3_copia">
			<g>
				<path fill="#C99C44" d="M300.358,141.272c-13.468-3.862-22.591-20.933-22.591-38.7s9.123-34.838,22.591-38.7
					c16.826-4.825,33.959,11.991,33.959,38.7S317.185,146.096,300.358,141.272z"/>
				<g>
					<path fill="#9E7835" d="M300.358,64.85c16.335-4.565,32.794,11.827,32.794,37.722s-16.459,42.287-32.794,37.722
						c-13.151-3.676-22.069-20.295-22.069-37.722S287.207,68.525,300.358,64.85 M300.358,62.894
						c-13.802,4.058-23.108,21.545-23.108,39.678s9.306,35.62,23.108,39.678c17.351,5.101,35.142-12.103,35.142-39.678
						S317.709,57.793,300.358,62.894L300.358,62.894z"/>
				</g>
			</g>
			<path opacity="0.75" fill="#C99C44" d="M323.848,102.571c0,18.548-11.454,31.157-23.489,28.606
				c-10.214-2.165-17.424-14.847-17.424-28.606c0-13.759,7.211-26.441,17.424-28.606C312.393,71.415,323.848,84.023,323.848,102.571
				z"/>
			<path fill="#C99C44" d="M323.846,102.57c0,0.195,0,0.379-0.009,0.574c-0.245-18.251-11.578-30.638-23.48-28.201
				c-10.111,2.07-17.284,14.479-17.419,28.054c-0.005-0.145-0.005-0.281-0.005-0.426c0-13.755,7.213-26.441,17.424-28.606
				C312.397,71.413,323.846,84.027,323.846,102.57z"/>
			<path opacity="0.75" fill="#FFFFFF" d="M323.846,103.718c0,18.554-11.45,31.074-23.489,28.436
				c-10.211-2.238-17.424-14.968-17.424-28.732c0-0.145,0-0.29,0.005-0.426c0.135,13.584,7.307,26.037,17.419,28.18
				c11.902,2.522,23.235-9.772,23.48-28.032C323.846,103.328,323.846,103.523,323.846,103.718z"/>
		</g>
		<path fill="#C99C44" d="M300.357,126.095L300.357,126.095c-2.424-0.423-4.344-3.309-4.344-6.427V87.469
			c0-3.118,1.92-5.975,4.344-6.361h0c2.515-0.4,4.643,1.989,4.643,5.321v34.414C305,124.177,302.872,126.533,300.357,126.095z"/>
		<path fill="#C99C44" d="M305.003,86.435v34.405c0,3.338-2.132,5.698-4.643,5.26c-0.254-0.044-0.5-0.116-0.745-0.217
			c2.123-0.105,3.803-2.29,3.803-5.25V86.618c0-1.65-0.523-3.078-1.366-4.031c-0.658-0.751-1.504-1.21-2.437-1.268
			c0.245-0.097,0.491-0.166,0.745-0.206c1.24-0.197,2.395,0.286,3.246,1.247C304.467,83.322,305.003,84.765,305.003,86.435z"/>
		<path fill="#C99C44" d="M300.692,84.344c-0.268-0.065-0.551-0.052-0.842,0.052c-1.023,0.364-1.864,1.899-2.025,3.686
			c-0.046,0.511-0.04,1.004,0.009,1.465c0.052,0.485-0.285,0.845-0.468,0.486c-0.453-0.888-0.684-2.149-0.556-3.539
			c0.165-1.795,0.981-3.358,1.994-3.805c0.823-0.363,1.599-0.016,2.154,0.79C301.172,83.79,300.975,84.413,300.692,84.344z"/>
	</g>
	<g id="Capa_1_copia_3">
		<g>
			<path fill="#A9813F" d="M389.292,142.143c-0.687,0-1.346-0.013-1.99-0.034l-0.969-0.031V63.063l0.97-0.03
				c0.645-0.02,1.303-0.034,1.989-0.034c19.536,0,22.041,21.147,22.041,39.571C411.333,121.717,409.63,142.143,389.292,142.143z"/>
			<g>
				<path fill="#6E5327" d="M389.292,64c17.208,0,21.042,17.269,21.042,38.571s-2.5,38.571-21.042,38.571
					c-0.676,0-1.324-0.013-1.958-0.033V64.033C387.968,64.013,388.616,64,389.292,64 M389.292,62c-0.697,0-1.366,0.014-2.021,0.034
					l-1.937,0.061v1.938v77.076v1.938l1.937,0.061c0.655,0.021,1.324,0.034,2.021,0.034c21.261,0,23.042-20.942,23.042-40.571
					c0-12.668-1.348-21.593-4.241-28.088C404.403,66.2,398.077,62,389.292,62L389.292,62z"/>
			</g>
		</g>
		<g id="Capa_3_copia_2">
			<g>
				<path fill="#C99C44" d="M379.461,139.943c-6.989-5.55-11.309-21.717-11.309-37.372s4.32-31.821,11.309-37.371
					c9.942-7.895,21.773,7.231,21.773,37.371S389.404,147.838,379.461,139.943z"/>
				<g>
					<path fill="#9E7835" d="M379.461,66.144c9.63-7.454,20.904,7.373,20.904,36.427s-11.274,43.881-20.904,36.427
						c-6.833-5.289-11.07-21.041-11.07-36.427S372.628,71.434,379.461,66.144 M379.461,64.256
						c-7.153,5.824-11.545,22.371-11.545,38.316s4.392,32.492,11.545,38.316c10.277,8.367,22.664-7.014,22.664-38.316
						S389.738,55.889,379.461,64.256L379.461,64.256z"/>
				</g>
			</g>
			<path opacity="0.75" fill="#C99C44" d="M393.777,102.571c0,19.897-7.357,31.708-14.316,27.624
				c-5.37-3.152-8.901-15.253-8.901-27.624s3.53-24.471,8.901-27.624C386.42,70.863,393.777,82.674,393.777,102.571z"/>
			<path fill="#C99C44" d="M393.776,102.57c0,0.209,0,0.406-0.006,0.616c-0.165-19.555-7.432-31.193-14.309-27.294
				c-5.319,3.015-8.834,14.85-8.898,27.062c-0.002-0.13-0.002-0.253-0.002-0.383c0-12.367,3.531-24.472,8.901-27.624
				C386.422,70.86,393.776,82.678,393.776,102.57z"/>
			<path opacity="0.75" fill="#FFFFFF" d="M393.776,103.801c0,19.904-7.354,31.562-14.315,27.337
				c-5.369-3.259-8.901-15.427-8.901-27.802c0-0.13,0-0.26,0.002-0.383c0.064,12.221,3.579,24.118,8.898,27.24
				c6.877,4.037,14.144-7.444,14.309-27.008C393.776,103.383,393.776,103.592,393.776,103.801z"/>
		</g>
		<path fill="#C99C44" d="M379.461,125.287L379.461,125.287c-1.317-0.636-2.34-3.549-2.34-6.505v-30.53
			c0-2.957,1.024-5.827,2.34-6.407v0c1.395-0.614,2.599,1.542,2.599,4.825v33.902C382.059,123.855,380.855,125.961,379.461,125.287z
			"/>
		<path fill="#C99C44" d="M382.06,86.67v33.9c0,3.29-1.2,5.39-2.6,4.72c-0.18-0.09-0.35-0.21-0.52-0.38
			c0.67-0.76,1.12-2.32,1.12-4.34v-33.9c0-2.04-0.46-3.65-1.16-4.42c0.18-0.18,0.37-0.31,0.56-0.4c0.16-0.07,0.32-0.11,0.48-0.11
			C381.12,81.74,382.06,83.77,382.06,86.67z"/>
		<path fill="#C99C44" d="M379.429,84.206c-0.114-0.024-0.235-0.005-0.358,0.063c-0.432,0.237-0.784,1.091-0.851,2.051
			c-0.019,0.274-0.017,0.537,0.004,0.782c0.022,0.258-0.119,0.459-0.195,0.273c-0.188-0.46-0.283-1.123-0.23-1.866
			c0.068-0.961,0.407-1.828,0.831-2.112c0.347-0.232,0.676-0.081,0.913,0.33C379.634,83.886,379.55,84.232,379.429,84.206z"/>
	</g>
	<g id="Capa_9">
		<path fill="#A9813F" stroke="#6E5327" stroke-width="2" stroke-miterlimit="10" d="M449.608,143.143h-6.047
			c-2.232,0-4.058-1.826-4.058-4.058V66.719c0-2.232,1.826-4.058,4.058-4.058h6.047c2.232,0,4.058,1.826,4.058,4.058v72.366
			C453.667,141.317,451.84,143.143,449.608,143.143z"/>
	</g>
	<g id="Capa_1_copia_4">
		<g>
			<path fill="#A9813F" d="M505.958,142.143c-20.338,0-22.041-20.426-22.041-39.572c0-18.424,2.505-39.571,22.041-39.571
				c0.687,0,1.345,0.014,1.989,0.034l0.97,0.03v79.015l-0.969,0.031C507.304,142.129,506.645,142.143,505.958,142.143z"/>
			<g>
				<path fill="#6E5327" d="M505.958,64c0.676,0,1.324,0.013,1.958,0.033v77.076c-0.635,0.02-1.283,0.033-1.958,0.033
					c-18.542,0-21.042-17.269-21.042-38.571S488.75,64,505.958,64 M505.958,62c-8.785,0-15.111,4.2-18.801,12.483
					c-2.893,6.495-4.241,15.42-4.241,28.088c0,19.629,1.781,40.571,23.042,40.571c0.697,0,1.366-0.014,2.021-0.034l1.937-0.061
					v-1.938V64.033v-1.938l-1.937-0.061C507.324,62.014,506.656,62,505.958,62L505.958,62z"/>
			</g>
		</g>
		<g id="Capa_3_copia_3">
			<g>
				<path fill="#C99C44" d="M515.789,139.943c6.989-5.55,11.309-21.717,11.309-37.372s-4.32-31.821-11.309-37.371
					c-9.942-7.895-21.773,7.231-21.773,37.371S505.846,147.838,515.789,139.943z"/>
				<g>
					<path fill="#9E7835" d="M515.789,66.144c-9.63-7.454-20.904,7.373-20.904,36.427s11.274,43.881,20.904,36.427
						c6.833-5.289,11.07-21.041,11.07-36.427S522.622,71.434,515.789,66.144 M515.789,64.256
						c7.153,5.824,11.545,22.371,11.545,38.316s-4.392,32.492-11.545,38.316c-10.277,8.367-22.664-7.014-22.664-38.316
						S505.512,55.889,515.789,64.256L515.789,64.256z"/>
				</g>
			</g>
			<path opacity="0.75" fill="#C99C44" d="M501.473,102.571c0,19.897,7.357,31.708,14.316,27.624
				c5.37-3.152,8.901-15.253,8.901-27.624s-3.53-24.471-8.901-27.624C508.83,70.863,501.473,82.674,501.473,102.571z"/>
			<path fill="#C99C44" d="M501.474,102.57c0,0.209,0,0.406,0.006,0.616c0.165-19.555,7.432-31.193,14.309-27.294
				c5.319,3.015,8.834,14.85,8.898,27.062c0.003-0.13,0.003-0.253,0.003-0.383c0-12.367-3.531-24.472-8.901-27.624
				C508.828,70.86,501.474,82.678,501.474,102.57z"/>
			<path opacity="0.75" fill="#FFFFFF" d="M501.474,103.801c0,19.904,7.354,31.562,14.315,27.337
				c5.369-3.259,8.901-15.427,8.901-27.802c0-0.13,0-0.26-0.003-0.383c-0.064,12.221-3.579,24.118-8.898,27.24
				c-6.877,4.037-14.144-7.444-14.309-27.008C501.474,103.383,501.474,103.592,501.474,103.801z"/>
		</g>
		<path fill="#C99C44" d="M515.789,125.287L515.789,125.287c1.317-0.636,2.34-3.549,2.34-6.505v-30.53
			c0-2.957-1.024-5.827-2.34-6.407l0,0c-1.395-0.614-2.599,1.542-2.599,4.825v33.902
			C513.191,123.855,514.395,125.961,515.789,125.287z"/>
		<path fill="#C99C44" d="M513.19,86.67v33.9c0,3.29,1.2,5.39,2.6,4.72c0.18-0.09,0.35-0.21,0.52-0.38
			c-0.67-0.76-1.12-2.32-1.12-4.34v-33.9c0-2.04,0.46-3.65,1.16-4.42c-0.18-0.18-0.37-0.31-0.56-0.4c-0.16-0.07-0.32-0.11-0.48-0.11
			C514.13,81.74,513.19,83.77,513.19,86.67z"/>
		<path fill="#C99C44" d="M517.429,85.206c-0.114-0.024-0.235-0.005-0.358,0.063c-0.432,0.237-0.784,1.091-0.851,2.051
			c-0.019,0.274-0.017,0.537,0.004,0.782c0.022,0.258-0.119,0.459-0.195,0.273c-0.188-0.46-0.283-1.123-0.23-1.866
			c0.068-0.961,0.407-1.828,0.831-2.112c0.347-0.232,0.676-0.081,0.913,0.33C517.634,84.886,517.55,85.232,517.429,85.206z"/>
	</g>
	<g id="Capa_1_copia_5">
		<g>
			<path fill="#A9813F" d="M585.458,142.143c-17.208,0-31.208-17.752-31.208-39.572S568.25,63,585.458,63
				c17.209,0,31.209,17.751,31.209,39.571S602.667,142.143,585.458,142.143z"/>
			<g>
				<path fill="#6E5327" d="M585.458,64c16.684,0,30.208,17.269,30.208,38.571s-13.525,38.571-30.208,38.571
					c-16.684,0-30.208-17.269-30.208-38.571S568.775,64,585.458,64 M585.458,62c-17.76,0-32.208,18.2-32.208,40.571
					s14.449,40.571,32.208,40.571c17.76,0,32.208-18.2,32.208-40.571S603.218,62,585.458,62L585.458,62z"/>
			</g>
		</g>
		<g id="Capa_3_copia_4">
			<g>
				<path fill="#C99C44" d="M596.558,141.272c13.468-3.862,22.591-20.933,22.591-38.7s-9.123-34.838-22.591-38.7
					c-16.826-4.825-33.959,11.991-33.959,38.7S579.732,146.096,596.558,141.272z"/>
				<g>
					<path fill="#9E7835" d="M596.558,64.85c-16.335-4.565-32.794,11.827-32.794,37.722s16.459,42.287,32.794,37.722
						c13.151-3.676,22.069-20.295,22.069-37.722S609.71,68.525,596.558,64.85 M596.558,62.894
						c13.802,4.058,23.108,21.545,23.108,39.678s-9.306,35.62-23.108,39.678c-17.351,5.101-35.142-12.103-35.142-39.678
						S579.208,57.793,596.558,62.894L596.558,62.894z"/>
				</g>
			</g>
			<path opacity="0.75" fill="#C99C44" d="M573.069,102.571c0,18.548,11.454,31.157,23.489,28.606
				c10.214-2.165,17.424-14.847,17.424-28.606s-7.211-26.441-17.424-28.606C584.523,71.415,573.069,84.023,573.069,102.571z"/>
			<path fill="#C99C44" d="M573.07,102.57c0,0.195,0,0.379,0.009,0.574c0.245-18.251,11.578-30.638,23.48-28.201
				c10.111,2.07,17.284,14.479,17.419,28.054c0.005-0.145,0.005-0.281,0.005-0.426c0-13.755-7.213-26.441-17.424-28.606
				C584.52,71.413,573.07,84.027,573.07,102.57z"/>
			<path opacity="0.75" fill="#FFFFFF" d="M573.07,103.718c0,18.554,11.45,31.074,23.489,28.436
				c10.211-2.238,17.424-14.968,17.424-28.732c0-0.145,0-0.29-0.005-0.426c-0.135,13.584-7.307,26.037-17.419,28.179
				c-11.902,2.522-23.235-9.772-23.48-28.032C573.07,103.328,573.07,103.523,573.07,103.718z"/>
		</g>
		<path fill="#C99C44" d="M596.559,126.095L596.559,126.095c2.424-0.423,4.344-3.309,4.344-6.427V87.469
			c0-3.118-1.92-5.975-4.344-6.361l0,0c-2.515-0.4-4.643,1.989-4.643,5.321v34.414C591.916,124.177,594.045,126.533,596.559,126.095
			z"/>
		<path fill="#C99C44" d="M591.914,86.435v34.405c0,3.338,2.132,5.698,4.643,5.26c0.254-0.044,0.5-0.116,0.745-0.217
			c-2.123-0.105-3.803-2.29-3.803-5.25V86.618c0-1.65,0.523-3.078,1.366-4.031c0.657-0.751,1.504-1.21,2.437-1.268
			c-0.245-0.097-0.491-0.166-0.745-0.206c-1.24-0.197-2.395,0.286-3.246,1.247C592.449,83.322,591.914,84.765,591.914,86.435z"/>
		<path fill="#C99C44" d="M597.785,84.344c-0.268-0.065-0.551-0.052-0.842,0.052c-1.023,0.364-1.864,1.899-2.025,3.686
			c-0.046,0.511-0.04,1.004,0.009,1.465c0.052,0.485-0.285,0.845-0.468,0.486c-0.453-0.888-0.684-2.149-0.556-3.539
			c0.165-1.795,0.981-3.358,1.994-3.805c0.823-0.363,1.599-0.016,2.154,0.79C598.265,83.79,598.068,84.413,597.785,84.344z"/>
	</g>
	<g id="Capa_1_copia_6">
		<g id="Capa_3_copia_5">
			<g>
				<path fill="#A9813F" d="M674.458,142.143c-19.965,0-36.208-17.752-36.208-39.572S654.493,63,674.458,63
					c19.966,0,36.209,17.751,36.209,39.571S694.424,142.143,674.458,142.143z"/>
				<g>
					<path fill="#6E5327" d="M674.458,64c19.445,0,35.208,17.269,35.208,38.571s-15.763,38.571-35.208,38.571
						s-35.208-17.269-35.208-38.571S655.013,64,674.458,64 M674.458,62c-20.517,0-37.208,18.2-37.208,40.571
						s16.692,40.571,37.208,40.571s37.208-18.2,37.208-40.571S694.975,62,674.458,62L674.458,62z"/>
				</g>
			</g>
			<g>
				<path fill="#C99C44" d="M679.458,142.143c19.965,0,36.208-17.752,36.208-39.572S699.423,63,679.458,63
					s-36.208,17.751-36.208,39.571S659.493,142.143,679.458,142.143z"/>
				<g>
					<path fill="#9E7835" d="M679.458,64c-19.445,0-35.208,17.269-35.208,38.571s15.763,38.571,35.208,38.571
						s35.208-17.269,35.208-38.571S698.903,64,679.458,64 M679.458,62c20.517,0,37.208,18.2,37.208,40.571
						s-16.692,40.571-37.208,40.571s-37.208-18.2-37.208-40.571S658.942,62,679.458,62L679.458,62z"/>
				</g>
			</g>
			<ellipse opacity="0.75" fill="#C99C44" cx="679.458" cy="102.571" rx="26.7" ry="29.25"/>
			<path fill="#C99C44" d="M652.76,102.57c0,0.17,0,0.33,0.009,0.5c0.237-15.92,12.095-28.75,26.69-28.75
				c14.587,0,26.453,12.83,26.69,28.75c0.009-0.17,0.009-0.33,0.009-0.5c0-16.15-11.958-29.25-26.7-29.25
				C664.709,73.32,652.76,86.42,652.76,102.57z"/>
			<path opacity="0.75" fill="#FFFFFF" d="M652.76,103.57c0,16.16,11.949,29.25,26.7,29.25c14.742,0,26.7-13.09,26.7-29.25
				c0-0.17,0-0.34-0.009-0.5c-0.237,15.93-12.104,28.75-26.69,28.75c-14.596,0-26.453-12.82-26.69-28.75
				C652.76,103.23,652.76,103.4,652.76,103.57z"/>
		</g>
		<path fill="#C99C44" d="M679.46,126.625L679.46,126.625c3.295,0,5.99-2.696,5.99-5.99V86.615c0-3.295-2.696-5.99-5.99-5.99l0,0
			c-3.295,0-5.99,2.696-5.99,5.99v34.019C673.469,123.929,676.165,126.625,679.46,126.625z"/>
		<path fill="#C99C44" d="M673.467,86.62v34.01c0,3.3,2.7,6,5.99,6c0.34,0,0.67-0.03,1-0.09c-2.82-0.48-4.99-2.95-4.99-5.91V86.62
			c0-1.65,0.67-3.15,1.76-4.23c0.86-0.86,1.98-1.46,3.23-1.67c-0.33-0.06-0.66-0.09-1-0.09c-1.64,0-3.14,0.67-4.23,1.76
			C674.137,83.47,673.467,84.97,673.467,86.62z"/>
		<path fill="#C99C44" d="M681.898,83.98c-0.356-0.104-0.735-0.129-1.125-0.063c-1.386,0.233-2.541,1.715-2.765,3.556
			c-0.064,0.527-0.056,1.041,0.013,1.528c0.073,0.511-0.396,0.853-0.651,0.46c-0.635-0.977-0.96-2.327-0.779-3.771
			c0.233-1.861,1.37-3.375,2.765-3.683c1.117-0.247,2.158,0.227,2.895,1.131C682.534,83.483,682.273,84.089,681.898,83.98z"/>
	</g>
</g>
<g id="Copper">
	<g id="Capa_1_copia_8_7_">
		<g>
			<path fill="#9F5B2C" stroke="#693C1D" stroke-width="2" stroke-miterlimit="10" d="M105.571,469.127
				c-21.82,0-39.571-17.752-39.571-39.572s17.751-39.571,39.571-39.571s39.572,17.751,39.572,39.571
				S127.391,469.127,105.571,469.127z"/>
		</g>
		<circle opacity="0.75" fill="#9F5B2C" cx="105.571" cy="429.555" r="29.25"/>
		<path fill="#9F5B2C" d="M134.82,429.554c0,0.17,0,0.33-0.01,0.5c-0.26-15.92-13.25-28.75-29.24-28.75
			c-15.98,0-28.98,12.83-29.24,28.75c-0.01-0.17-0.01-0.33-0.01-0.5c0-16.15,13.1-29.25,29.25-29.25
			C121.73,400.304,134.82,413.404,134.82,429.554z"/>
		<path opacity="0.75" fill="#AC6F45" d="M134.82,430.554c0,16.16-13.09,29.25-29.25,29.25c-16.15,0-29.25-13.09-29.25-29.25
			c0-0.17,0-0.34,0.01-0.5c0.26,15.93,13.26,28.75,29.24,28.75c15.99,0,28.98-12.82,29.24-28.75
			C134.82,430.214,134.82,430.384,134.82,430.554z"/>
		<path fill="#9F5B2C" d="M105.57,453.609L105.57,453.609c-3.609,0-6.563-2.953-6.563-6.563v-32.875
			c0-3.609,2.953-6.563,6.562-6.563h0c3.609,0,6.562,2.953,6.562,6.563v32.875C112.133,450.656,109.179,453.609,105.57,453.609z"/>
		<path fill="#9F5B2C" d="M112.13,414.174v32.87c0,3.61-2.95,6.56-6.56,6.56c-0.17,0-0.34-0.01-0.5-0.02
			c3.38-0.26,6.06-3.1,6.06-6.54v-32.87c0-1.81-0.74-3.45-1.93-4.64c-1.07-1.08-2.52-1.79-4.13-1.91c0.16-0.01,0.33-0.02,0.5-0.02
			c1.81,0,3.45,0.74,4.63,1.93C111.39,410.724,112.13,412.364,112.13,414.174z"/>
		<path fill="#9F5B2C" d="M107.341,410.963c-0.475-0.104-0.981-0.129-1.501-0.063c-1.85,0.233-3.392,1.715-3.691,3.556
			c-0.086,0.527-0.075,1.042,0.017,1.528c0.097,0.511-0.529,0.853-0.87,0.46c-0.848-0.977-1.281-2.327-1.04-3.772
			c0.311-1.861,1.829-3.375,3.691-3.683c1.491-0.247,2.881,0.227,3.865,1.131C108.189,410.466,107.84,411.072,107.341,410.963z"/>
	</g>
	<g id="Capa_1_copia_8_5_">
		<g id="Capa_3_copia_6_5_">
			<g>
				<path fill="#774420" d="M211.458,469.127c-19.965,0-36.208-17.752-36.208-39.572c0-21.819,16.243-39.571,36.208-39.571
					s36.208,17.751,36.208,39.571C247.667,451.375,231.424,469.127,211.458,469.127z"/>
				<g>
					<path fill="#542F15" d="M211.458,390.984c19.445,0,35.208,17.269,35.208,38.571s-15.763,38.571-35.208,38.571
						s-35.208-17.269-35.208-38.571S192.013,390.984,211.458,390.984 M211.458,388.984c-20.517,0-37.208,18.2-37.208,40.571
						s16.692,40.571,37.208,40.571s37.208-18.2,37.208-40.571S231.975,388.984,211.458,388.984L211.458,388.984z"/>
				</g>
			</g>
			<g>
				<path fill="#9F5B2C" stroke="#693C1D" stroke-width="2" stroke-miterlimit="10" d="M206.459,469.127
					c-19.965,0-36.208-17.752-36.208-39.572s16.243-39.571,36.208-39.571s36.208,17.751,36.208,39.571
					S226.424,469.127,206.459,469.127z"/>
			</g>
			<ellipse opacity="0.75" fill="#9F5B2C" cx="206.458" cy="429.555" rx="26.7" ry="29.25"/>
			<path fill="#9F5B2C" d="M233.157,429.554c0,0.17,0,0.33-0.009,0.5c-0.237-15.92-12.095-28.75-26.691-28.75
				c-14.587,0-26.453,12.83-26.691,28.75c-0.009-0.17-0.009-0.33-0.009-0.5c0-16.15,11.958-29.25,26.7-29.25
				C221.208,400.304,233.157,413.404,233.157,429.554z"/>
			<path opacity="0.75" fill="#AC6F45" d="M233.157,430.554c0,16.16-11.949,29.25-26.7,29.25c-14.742,0-26.7-13.09-26.7-29.25
				c0-0.17,0-0.34,0.009-0.5c0.237,15.93,12.104,28.75,26.691,28.75c14.596,0,26.453-12.82,26.691-28.75
				C233.157,430.214,233.157,430.384,233.157,430.554z"/>
		</g>
		<path fill="#9F5B2C" d="M206.457,453.609L206.457,453.609c-3.295,0-5.99-2.696-5.99-5.99v-34.019c0-3.295,2.696-5.99,5.99-5.99
			l0,0c3.295,0,5.99,2.696,5.99,5.99v34.019C212.447,450.913,209.752,453.609,206.457,453.609z"/>
		<path fill="#9F5B2C" d="M212.45,413.604v34.01c0,3.3-2.7,6-5.99,6c-0.34,0-0.67-0.03-1-0.09c2.82-0.48,4.99-2.95,4.99-5.91v-34.01
			c0-1.65-0.67-3.15-1.76-4.23c-0.86-0.86-1.98-1.46-3.23-1.67c0.33-0.06,0.66-0.09,1-0.09c1.64,0,3.14,0.67,4.23,1.76
			C211.78,410.454,212.45,411.954,212.45,413.604z"/>
		<path fill="#9F5B2C" d="M206.903,410.963c-0.356-0.104-0.735-0.129-1.125-0.063c-1.386,0.233-2.541,1.715-2.765,3.556
			c-0.064,0.527-0.056,1.042,0.013,1.528c0.072,0.511-0.396,0.853-0.651,0.46c-0.635-0.977-0.96-2.327-0.779-3.772
			c0.233-1.861,1.37-3.375,2.765-3.683c1.117-0.247,2.158,0.227,2.895,1.131C207.538,410.466,207.277,411.072,206.903,410.963z"/>
	</g>
	<g id="Capa_1_copia_8_4_">
		<g>
			<path fill="#774420" d="M311.458,469.127c-17.208,0-31.208-17.752-31.208-39.572c0-21.819,14-39.571,31.208-39.571
				c17.209,0,31.209,17.751,31.209,39.571C342.667,451.375,328.667,469.127,311.458,469.127z"/>
			<g>
				<path fill="#542F15" d="M311.458,390.984c16.684,0,30.208,17.269,30.208,38.571c0,21.302-13.525,38.571-30.208,38.571
					c-16.684,0-30.208-17.269-30.208-38.571C281.25,408.253,294.775,390.984,311.458,390.984 M311.458,388.984
					c-17.76,0-32.208,18.2-32.208,40.571c0,22.371,14.449,40.571,32.208,40.571s32.208-18.2,32.208-40.571
					C343.667,407.184,329.218,388.984,311.458,388.984L311.458,388.984z"/>
			</g>
		</g>
		<g id="Capa_3_copia_6_4_">
			<g>
				<path fill="#9F5B2C" stroke="#693C1D" stroke-width="2" stroke-miterlimit="10" d="M300.358,468.255
					c-13.468-3.862-22.591-20.933-22.591-38.7s9.123-34.838,22.591-38.7c16.826-4.825,33.959,11.991,33.959,38.7
					C334.318,456.263,317.185,473.08,300.358,468.255z"/>
			</g>
			<path opacity="0.75" fill="#9F5B2C" d="M323.848,429.555c0,18.548-11.454,31.157-23.489,28.606
				c-10.214-2.165-17.424-14.847-17.424-28.606s7.211-26.441,17.424-28.606C312.393,398.398,323.848,411.007,323.848,429.555z"/>
			<path fill="#9F5B2C" d="M323.846,429.553c0,0.195,0,0.379-0.009,0.574c-0.245-18.251-11.578-30.638-23.48-28.201
				c-10.111,2.07-17.284,14.479-17.419,28.054c-0.005-0.145-0.005-0.281-0.005-0.426c0-13.755,7.213-26.441,17.424-28.606
				C312.397,398.396,323.846,411.01,323.846,429.553z"/>
			<path opacity="0.75" fill="#AC6F45" d="M323.846,430.702c0,18.554-11.45,31.074-23.489,28.436
				c-10.211-2.238-17.424-14.968-17.424-28.732c0-0.145,0-0.29,0.005-0.426c0.135,13.584,7.307,26.036,17.419,28.18
				c11.902,2.522,23.235-9.772,23.48-28.032C323.846,430.311,323.846,430.506,323.846,430.702z"/>
		</g>
		<path fill="#9F5B2C" d="M300.357,453.079L300.357,453.079c-2.424-0.423-4.344-3.309-4.344-6.427v-32.199
			c0-3.118,1.92-5.975,4.344-6.361l0,0c2.515-0.4,4.643,1.989,4.643,5.322v34.414C305,451.161,302.872,453.517,300.357,453.079z"/>
		<path fill="#9F5B2C" d="M305.003,413.418v34.405c0,3.338-2.132,5.698-4.643,5.26c-0.254-0.044-0.5-0.116-0.745-0.217
			c2.123-0.105,3.803-2.29,3.803-5.25v-34.015c0-1.65-0.523-3.078-1.366-4.031c-0.658-0.751-1.504-1.21-2.437-1.268
			c0.245-0.097,0.491-0.166,0.745-0.206c1.24-0.197,2.395,0.286,3.246,1.247C304.467,410.306,305.003,411.749,305.003,413.418z"/>
		<path fill="#9F5B2C" d="M300.692,411.328c-0.268-0.065-0.551-0.052-0.842,0.052c-1.023,0.364-1.864,1.899-2.025,3.686
			c-0.046,0.511-0.04,1.004,0.009,1.465c0.052,0.485-0.285,0.845-0.468,0.486c-0.453-0.888-0.684-2.149-0.556-3.539
			c0.166-1.795,0.981-3.358,1.994-3.805c0.823-0.363,1.599-0.016,2.154,0.79C301.172,410.774,300.975,411.397,300.692,411.328z"/>
	</g>
	<g id="Capa_1_copia_8_3_">
		<g>
			<path fill="#774420" d="M389.292,469.126c-0.687,0-1.346-0.013-1.991-0.034l-0.968-0.031v-79.012l0.969-0.031
				c0.645-0.021,1.304-0.034,1.99-0.034c19.536,0,22.041,21.147,22.041,39.571C411.333,448.7,409.63,469.126,389.292,469.126z"/>
			<g>
				<path fill="#542F15" d="M389.292,390.984c17.208,0,21.042,17.269,21.042,38.571s-2.5,38.571-21.042,38.571
					c-0.676,0-1.324-0.013-1.958-0.033v-77.076C387.968,390.997,388.616,390.984,389.292,390.984 M389.292,388.984
					c-0.697,0-1.366,0.014-2.021,0.034l-1.937,0.061v1.938v77.076v1.938l1.937,0.061c0.655,0.021,1.324,0.034,2.021,0.034
					c21.261,0,23.042-20.942,23.042-40.571c0-12.668-1.348-21.593-4.241-28.088C404.403,393.184,398.077,388.984,389.292,388.984
					L389.292,388.984z"/>
			</g>
		</g>
		<g id="Capa_3_copia_6_3_">
			<g>
				<path fill="#9F5B2C" stroke="#693C1D" stroke-width="2" stroke-miterlimit="10" d="M379.461,466.927
					c-6.989-5.55-11.309-21.717-11.309-37.372s4.32-31.821,11.309-37.371c9.942-7.895,21.773,7.231,21.773,37.371
					S389.404,474.822,379.461,466.927z"/>
			</g>
			<path opacity="0.75" fill="#9F5B2C" d="M393.777,429.555c0,19.897-7.357,31.708-14.316,27.624
				c-5.37-3.152-8.901-15.253-8.901-27.624c0-12.371,3.53-24.471,8.901-27.624C386.42,397.847,393.777,409.658,393.777,429.555z"/>
			<path fill="#9F5B2C" d="M393.776,429.553c0,0.209,0,0.406-0.006,0.616c-0.165-19.555-7.432-31.193-14.309-27.294
				c-5.319,3.015-8.834,14.85-8.898,27.062c-0.002-0.13-0.002-0.253-0.002-0.383c0-12.367,3.531-24.472,8.901-27.624
				C386.422,397.844,393.776,409.662,393.776,429.553z"/>
			<path opacity="0.75" fill="#AC6F45" d="M393.776,430.785c0,19.904-7.354,31.562-14.315,27.337
				c-5.369-3.259-8.901-15.427-8.901-27.802c0-0.13,0-0.26,0.002-0.383c0.064,12.221,3.579,24.118,8.898,27.24
				c6.877,4.037,14.144-7.444,14.309-27.008C393.776,430.366,393.776,430.576,393.776,430.785z"/>
		</g>
		<path fill="#9F5B2C" d="M379.461,452.271L379.461,452.271c-1.317-0.635-2.34-3.549-2.34-6.505v-30.53
			c0-2.957,1.024-5.827,2.34-6.407l0,0c1.395-0.614,2.599,1.542,2.599,4.825v33.902
			C382.059,450.839,380.855,452.944,379.461,452.271z"/>
		<path fill="#9F5B2C" d="M382.06,413.654v33.9c0,3.29-1.2,5.39-2.6,4.72c-0.18-0.09-0.35-0.21-0.52-0.38
			c0.67-0.76,1.12-2.32,1.12-4.34v-33.9c0-2.04-0.46-3.65-1.16-4.42c0.18-0.18,0.37-0.31,0.56-0.4c0.16-0.07,0.32-0.11,0.48-0.11
			C381.12,408.724,382.06,410.754,382.06,413.654z"/>
		<path fill="#9F5B2C" d="M379.429,411.19c-0.114-0.024-0.235-0.005-0.358,0.063c-0.432,0.237-0.784,1.091-0.851,2.051
			c-0.019,0.274-0.017,0.537,0.004,0.782c0.022,0.258-0.119,0.459-0.195,0.273c-0.188-0.46-0.283-1.123-0.23-1.866
			c0.068-0.961,0.407-1.828,0.831-2.112c0.347-0.232,0.676-0.081,0.913,0.33C379.634,410.87,379.55,411.215,379.429,411.19z"/>
	</g>
	<g id="Capa_9_copia">
		<path fill="#774420" stroke="#542F15" stroke-width="2" stroke-miterlimit="10" d="M449.609,470.127h-6.047
			c-2.232,0-4.058-1.826-4.058-4.058v-72.366c0-2.232,1.826-4.058,4.058-4.058h6.047c2.232,0,4.058,1.826,4.058,4.058v72.366
			C453.667,468.3,451.841,470.127,449.609,470.127z"/>
	</g>
	<g id="Capa_1_copia_8_2_">
		<g>
			<path fill="#774420" d="M505.958,469.127c-20.338,0-22.041-20.427-22.041-39.572c0-18.423,2.505-39.571,22.041-39.571
				c0.687,0,1.346,0.013,1.99,0.034l0.969,0.031v79.012l-0.968,0.031C507.304,469.113,506.645,469.127,505.958,469.127z"/>
			<g>
				<path fill="#542F15" d="M505.958,390.984c0.676,0,1.324,0.013,1.958,0.033v77.076c-0.635,0.02-1.283,0.033-1.958,0.033
					c-18.542,0-21.042-17.269-21.042-38.571C484.917,408.253,488.75,390.984,505.958,390.984 M505.958,388.984
					c-8.785,0-15.111,4.2-18.801,12.483c-2.893,6.495-4.241,15.42-4.241,28.088c0,19.629,1.781,40.571,23.042,40.571
					c0.697,0,1.366-0.014,2.021-0.034l1.937-0.061v-1.938v-77.076v-1.938l-1.937-0.061
					C507.324,388.997,506.656,388.984,505.958,388.984L505.958,388.984z"/>
			</g>
		</g>
		<g id="Capa_3_copia_6_2_">
			<g>
				<path fill="#9F5B2C" stroke="#693C1D" stroke-width="2" stroke-miterlimit="10" d="M515.789,466.927
					c6.989-5.55,11.309-21.717,11.309-37.372s-4.32-31.821-11.309-37.371c-9.942-7.895-21.773,7.231-21.773,37.371
					C494.016,459.695,505.846,474.822,515.789,466.927z"/>
			</g>
			<path opacity="0.75" fill="#9F5B2C" d="M501.473,429.555c0,19.897,7.357,31.708,14.316,27.624
				c5.37-3.152,8.901-15.253,8.901-27.624c0-12.371-3.53-24.471-8.901-27.624C508.83,397.847,501.473,409.658,501.473,429.555z"/>
			<path fill="#9F5B2C" d="M501.474,429.553c0,0.209,0,0.406,0.006,0.616c0.165-19.555,7.432-31.193,14.309-27.294
				c5.319,3.015,8.834,14.85,8.898,27.062c0.002-0.13,0.002-0.253,0.002-0.383c0-12.367-3.531-24.472-8.901-27.624
				C508.828,397.844,501.474,409.662,501.474,429.553z"/>
			<path opacity="0.75" fill="#AC6F45" d="M501.474,430.785c0,19.904,7.354,31.562,14.315,27.337
				c5.369-3.259,8.901-15.427,8.901-27.802c0-0.13,0-0.26-0.002-0.383c-0.064,12.221-3.579,24.118-8.898,27.24
				c-6.877,4.037-14.144-7.444-14.309-27.008C501.474,430.366,501.474,430.576,501.474,430.785z"/>
		</g>
		<path fill="#9F5B2C" d="M515.789,452.271L515.789,452.271c1.317-0.635,2.34-3.549,2.34-6.505v-30.53
			c0-2.957-1.024-5.827-2.34-6.407l0,0c-1.395-0.614-2.599,1.542-2.599,4.825v33.902
			C513.191,450.839,514.395,452.944,515.789,452.271z"/>
		<path fill="#9F5B2C" d="M513.19,413.654v33.9c0,3.29,1.2,5.39,2.6,4.72c0.18-0.09,0.35-0.21,0.52-0.38
			c-0.67-0.76-1.12-2.32-1.12-4.34v-33.9c0-2.04,0.46-3.65,1.16-4.42c-0.18-0.18-0.37-0.31-0.56-0.4c-0.16-0.07-0.32-0.11-0.48-0.11
			C514.13,408.724,513.19,410.754,513.19,413.654z"/>
		<path fill="#9F5B2C" d="M517.429,412.19c-0.114-0.024-0.235-0.005-0.358,0.063c-0.432,0.237-0.784,1.091-0.851,2.051
			c-0.019,0.274-0.017,0.537,0.004,0.782c0.022,0.258-0.119,0.459-0.195,0.273c-0.188-0.46-0.283-1.123-0.23-1.866
			c0.068-0.961,0.407-1.828,0.831-2.112c0.347-0.232,0.676-0.081,0.913,0.33C517.634,411.87,517.55,412.215,517.429,412.19z"/>
	</g>
	<g id="Capa_1_copia_8_1_">
		<g>
			<path fill="#774420" d="M585.458,469.127c-17.208,0-31.208-17.752-31.208-39.572c0-21.819,14-39.571,31.208-39.571
				c17.209,0,31.209,17.751,31.209,39.571C616.667,451.375,602.667,469.127,585.458,469.127z"/>
			<g>
				<path fill="#542F15" d="M585.458,390.984c16.684,0,30.208,17.269,30.208,38.571c0,21.302-13.525,38.571-30.208,38.571
					s-30.208-17.269-30.208-38.571C555.25,408.253,568.775,390.984,585.458,390.984 M585.458,388.984
					c-17.76,0-32.208,18.2-32.208,40.571s14.449,40.571,32.208,40.571c17.76,0,32.208-18.2,32.208-40.571
					S603.218,388.984,585.458,388.984L585.458,388.984z"/>
			</g>
		</g>
		<g id="Capa_3_copia_6_1_">
			<g>
				<path fill="#9F5B2C" stroke="#693C1D" stroke-width="2" stroke-miterlimit="10" d="M596.558,468.255
					c13.468-3.862,22.591-20.933,22.591-38.7s-9.123-34.838-22.591-38.7c-16.826-4.825-33.959,11.991-33.959,38.7
					S579.732,473.08,596.558,468.255z"/>
			</g>
			<path opacity="0.75" fill="#9F5B2C" d="M573.069,429.555c0,18.548,11.454,31.157,23.489,28.606
				c10.214-2.165,17.424-14.847,17.424-28.606s-7.211-26.441-17.424-28.606C584.523,398.398,573.069,411.007,573.069,429.555z"/>
			<path fill="#9F5B2C" d="M573.07,429.553c0,0.195,0,0.379,0.009,0.574c0.245-18.251,11.578-30.638,23.48-28.201
				c10.111,2.07,17.284,14.479,17.419,28.054c0.005-0.145,0.005-0.281,0.005-0.426c0-13.755-7.213-26.441-17.424-28.606
				C584.52,398.396,573.07,411.01,573.07,429.553z"/>
			<path opacity="0.75" fill="#AC6F45" d="M573.07,430.702c0,18.554,11.45,31.074,23.489,28.436
				c10.211-2.238,17.424-14.968,17.424-28.732c0-0.145,0-0.29-0.005-0.426c-0.135,13.584-7.307,26.036-17.419,28.18
				c-11.902,2.522-23.235-9.772-23.48-28.032C573.07,430.311,573.07,430.506,573.07,430.702z"/>
		</g>
		<path fill="#9F5B2C" d="M596.559,453.079L596.559,453.079c2.424-0.423,4.344-3.309,4.344-6.427v-32.199
			c0-3.118-1.92-5.975-4.344-6.361h0c-2.515-0.4-4.643,1.989-4.643,5.322v34.414C591.916,451.161,594.045,453.517,596.559,453.079z"
			/>
		<path fill="#9F5B2C" d="M591.914,413.418v34.405c0,3.338,2.132,5.698,4.643,5.26c0.254-0.044,0.5-0.116,0.745-0.217
			c-2.123-0.105-3.803-2.29-3.803-5.25v-34.015c0-1.65,0.523-3.078,1.366-4.031c0.658-0.751,1.504-1.21,2.437-1.268
			c-0.245-0.097-0.491-0.166-0.745-0.206c-1.24-0.197-2.395,0.286-3.246,1.247C592.449,410.306,591.914,411.749,591.914,413.418z"/>
		<path fill="#9F5B2C" d="M597.785,411.328c-0.268-0.065-0.551-0.052-0.842,0.052c-1.023,0.364-1.864,1.899-2.025,3.686
			c-0.046,0.511-0.04,1.004,0.009,1.465c0.052,0.485-0.285,0.845-0.468,0.486c-0.453-0.888-0.684-2.149-0.556-3.539
			c0.166-1.795,0.981-3.358,1.994-3.805c0.823-0.363,1.599-0.016,2.154,0.79C598.265,410.774,598.068,411.397,597.785,411.328z"/>
	</g>
	<g id="Capa_1_copia_8">
		<g id="Capa_3_copia_6">
			<g>
				<path fill="#774420" d="M674.458,469.127c-19.965,0-36.208-17.752-36.208-39.572c0-21.819,16.243-39.571,36.208-39.571
					c19.966,0,36.209,17.751,36.209,39.571C710.667,451.375,694.424,469.127,674.458,469.127z"/>
				<g>
					<path fill="#542F15" d="M674.458,390.984c19.445,0,35.208,17.269,35.208,38.571s-15.763,38.571-35.208,38.571
						c-19.445,0-35.208-17.269-35.208-38.571S655.013,390.984,674.458,390.984 M674.458,388.984
						c-20.517,0-37.208,18.2-37.208,40.571s16.692,40.571,37.208,40.571s37.208-18.2,37.208-40.571S694.975,388.984,674.458,388.984
						L674.458,388.984z"/>
				</g>
			</g>
			<g>
				<path fill="#9F5B2C" stroke="#693C1D" stroke-width="2" stroke-miterlimit="10" d="M679.458,469.127
					c19.965,0,36.208-17.752,36.208-39.572s-16.243-39.571-36.208-39.571s-36.208,17.751-36.208,39.571
					S659.493,469.127,679.458,469.127z"/>
			</g>
			<ellipse opacity="0.75" fill="#9F5B2C" cx="679.458" cy="429.555" rx="26.7" ry="29.25"/>
			<path fill="#9F5B2C" d="M652.76,429.554c0,0.17,0,0.33,0.009,0.5c0.237-15.92,12.095-28.75,26.691-28.75
				c14.587,0,26.453,12.83,26.69,28.75c0.009-0.17,0.009-0.33,0.009-0.5c0-16.15-11.958-29.25-26.7-29.25
				C664.709,400.304,652.76,413.404,652.76,429.554z"/>
			<path opacity="0.75" fill="#AC6F45" d="M652.76,430.554c0,16.16,11.949,29.25,26.7,29.25c14.742,0,26.7-13.09,26.7-29.25
				c0-0.17,0-0.34-0.009-0.5c-0.237,15.93-12.104,28.75-26.69,28.75c-14.596,0-26.453-12.82-26.691-28.75
				C652.76,430.214,652.76,430.384,652.76,430.554z"/>
		</g>
		<path fill="#9F5B2C" d="M679.46,453.609L679.46,453.609c3.295,0,5.99-2.696,5.99-5.99v-34.019c0-3.295-2.696-5.99-5.99-5.99l0,0
			c-3.295,0-5.99,2.696-5.99,5.99v34.019C673.469,450.913,676.165,453.609,679.46,453.609z"/>
		<path fill="#9F5B2C" d="M673.467,413.604v34.01c0,3.3,2.7,6,5.99,6c0.34,0,0.67-0.03,1-0.09c-2.82-0.48-4.99-2.95-4.99-5.91
			v-34.01c0-1.65,0.67-3.15,1.76-4.23c0.86-0.86,1.98-1.46,3.23-1.67c-0.33-0.06-0.66-0.09-1-0.09c-1.64,0-3.14,0.67-4.23,1.76
			C674.137,410.454,673.467,411.954,673.467,413.604z"/>
		<path fill="#9F5B2C" d="M681.898,410.963c-0.356-0.104-0.735-0.129-1.125-0.063c-1.386,0.233-2.541,1.715-2.765,3.556
			c-0.064,0.527-0.056,1.042,0.013,1.528c0.072,0.511-0.396,0.853-0.651,0.46c-0.635-0.977-0.96-2.327-0.779-3.772
			c0.233-1.861,1.37-3.375,2.765-3.683c1.117-0.247,2.158,0.227,2.895,1.131C682.534,410.466,682.273,411.072,681.898,410.963z"/>
	</g>
</g>
<g id="Silver">
	<g id="Capa_1_copia_9_6_">
		<g>
			<path fill="#AEADB3" stroke="#7F7F7F" stroke-width="2" stroke-miterlimit="10" d="M105.571,308.635
				c-21.82,0-39.571-17.752-39.571-39.572s17.751-39.571,39.571-39.571s39.572,17.751,39.572,39.571
				S127.391,308.635,105.571,308.635z"/>
		</g>
		<circle opacity="0.75" fill="#AEADB3" cx="105.571" cy="269.063" r="29.25"/>
		<path fill="#AEADB3" d="M134.82,269.062c0,0.17,0,0.33-0.01,0.5c-0.26-15.92-13.25-28.75-29.24-28.75
			c-15.98,0-28.98,12.83-29.24,28.75c-0.01-0.17-0.01-0.33-0.01-0.5c0-16.15,13.1-29.25,29.25-29.25
			C121.73,239.812,134.82,252.912,134.82,269.062z"/>
		<path opacity="0.75" fill="#AEADB3" d="M134.82,270.062c0,16.16-13.09,29.25-29.25,29.25c-16.15,0-29.25-13.09-29.25-29.25
			c0-0.17,0-0.34,0.01-0.5c0.26,15.93,13.26,28.75,29.24,28.75c15.99,0,28.98-12.82,29.24-28.75
			C134.82,269.722,134.82,269.892,134.82,270.062z"/>
		<path fill="#AEADB3" d="M105.57,293.117L105.57,293.117c-3.609,0-6.563-2.953-6.563-6.563v-32.875
			c0-3.609,2.953-6.562,6.562-6.562h0c3.609,0,6.562,2.953,6.562,6.562v32.875C112.133,290.164,109.179,293.117,105.57,293.117z"/>
		<path fill="#AEADB3" d="M112.13,253.682v32.87c0,3.61-2.95,6.56-6.56,6.56c-0.17,0-0.34-0.01-0.5-0.02
			c3.38-0.26,6.06-3.1,6.06-6.54v-32.87c0-1.81-0.74-3.45-1.93-4.64c-1.07-1.08-2.52-1.79-4.13-1.91c0.16-0.01,0.33-0.02,0.5-0.02
			c1.81,0,3.45,0.74,4.63,1.93C111.39,250.232,112.13,251.872,112.13,253.682z"/>
		<path fill="#AEADB3" d="M107.341,250.471c-0.475-0.104-0.981-0.129-1.501-0.063c-1.85,0.233-3.392,1.715-3.691,3.556
			c-0.086,0.527-0.075,1.042,0.017,1.528c0.097,0.511-0.529,0.853-0.87,0.46c-0.848-0.977-1.281-2.327-1.04-3.771
			c0.311-1.861,1.829-3.375,3.691-3.683c1.491-0.247,2.881,0.227,3.865,1.131C108.189,249.974,107.84,250.58,107.341,250.471z"/>
	</g>
	<g id="Capa_1_copia_9_5_">
		<g id="Capa_3_copia_7_5_">
			<g>
				<path fill="#898989" d="M211.458,308.635c-19.965,0-36.208-17.752-36.208-39.572s16.243-39.571,36.208-39.571
					s36.208,17.751,36.208,39.571S231.424,308.635,211.458,308.635z"/>
				<g>
					<path fill="#636363" d="M211.458,230.492c19.445,0,35.208,17.269,35.208,38.571s-15.763,38.571-35.208,38.571
						s-35.208-17.269-35.208-38.571S192.013,230.492,211.458,230.492 M211.458,228.492c-20.517,0-37.208,18.2-37.208,40.571
						s16.692,40.571,37.208,40.571s37.208-18.2,37.208-40.571S231.975,228.492,211.458,228.492L211.458,228.492z"/>
				</g>
			</g>
			<g>
				<path fill="#AEADB3" stroke="#7F7F7F" stroke-width="2" stroke-miterlimit="10" d="M206.459,308.635
					c-19.965,0-36.208-17.752-36.208-39.572s16.243-39.571,36.208-39.571s36.208,17.751,36.208,39.571
					S226.424,308.635,206.459,308.635z"/>
			</g>
			<ellipse opacity="0.75" fill="#AEADB3" cx="206.458" cy="269.063" rx="26.7" ry="29.25"/>
			<path fill="#AEADB3" d="M233.157,269.062c0,0.17,0,0.33-0.009,0.5c-0.237-15.92-12.095-28.75-26.691-28.75
				c-14.587,0-26.453,12.83-26.691,28.75c-0.009-0.17-0.009-0.33-0.009-0.5c0-16.15,11.958-29.25,26.7-29.25
				C221.208,239.812,233.157,252.912,233.157,269.062z"/>
			<path opacity="0.75" fill="#AEADB3" d="M233.157,270.062c0,16.16-11.949,29.25-26.7,29.25c-14.742,0-26.7-13.09-26.7-29.25
				c0-0.17,0-0.34,0.009-0.5c0.237,15.93,12.104,28.75,26.691,28.75c14.596,0,26.453-12.82,26.691-28.75
				C233.157,269.722,233.157,269.892,233.157,270.062z"/>
		</g>
		<path fill="#AEADB3" d="M206.457,293.117L206.457,293.117c-3.295,0-5.99-2.696-5.99-5.99v-34.019c0-3.295,2.696-5.99,5.99-5.99
			l0,0c3.295,0,5.99,2.696,5.99,5.99v34.019C212.447,290.421,209.752,293.117,206.457,293.117z"/>
		<path fill="#AEADB3" d="M212.45,253.112v34.01c0,3.3-2.7,6-5.99,6c-0.34,0-0.67-0.03-1-0.09c2.82-0.48,4.99-2.95,4.99-5.91v-34.01
			c0-1.65-0.67-3.15-1.76-4.23c-0.86-0.86-1.98-1.46-3.23-1.67c0.33-0.06,0.66-0.09,1-0.09c1.64,0,3.14,0.67,4.23,1.76
			C211.78,249.962,212.45,251.462,212.45,253.112z"/>
		<path fill="#AEADB3" d="M206.903,250.471c-0.356-0.104-0.735-0.129-1.125-0.063c-1.386,0.233-2.541,1.715-2.765,3.556
			c-0.064,0.527-0.056,1.042,0.013,1.528c0.072,0.511-0.396,0.853-0.651,0.46c-0.635-0.977-0.96-2.327-0.779-3.771
			c0.233-1.861,1.37-3.375,2.765-3.683c1.117-0.247,2.158,0.227,2.895,1.131C207.538,249.974,207.277,250.58,206.903,250.471z"/>
	</g>
	<g id="Capa_1_copia_9_4_">
		<g>
			<path fill="#898989" d="M311.458,308.634c-17.208,0-31.208-17.751-31.208-39.571s14-39.571,31.208-39.571
				c17.209,0,31.209,17.751,31.209,39.571S328.667,308.634,311.458,308.634z"/>
			<g>
				<path fill="#636363" d="M311.458,230.492c16.684,0,30.208,17.269,30.208,38.571s-13.525,38.571-30.208,38.571
					c-16.684,0-30.208-17.269-30.208-38.571S294.775,230.492,311.458,230.492 M311.458,228.492c-17.76,0-32.208,18.2-32.208,40.571
					s14.449,40.571,32.208,40.571s32.208-18.2,32.208-40.571S329.218,228.492,311.458,228.492L311.458,228.492z"/>
			</g>
		</g>
		<g id="Capa_3_copia_7_4_">
			<g>
				<path fill="#AEADB3" stroke="#7F7F7F" stroke-width="2" stroke-miterlimit="10" d="M300.358,307.763
					c-13.468-3.862-22.591-20.933-22.591-38.7s9.123-34.838,22.591-38.7c16.826-4.825,33.959,11.991,33.959,38.7
					S317.185,312.588,300.358,307.763z"/>
			</g>
			<path opacity="0.75" fill="#AEADB3" d="M323.848,269.063c0,18.548-11.454,31.157-23.489,28.606
				c-10.214-2.165-17.424-14.847-17.424-28.606s7.211-26.441,17.424-28.606C312.393,237.907,323.848,250.515,323.848,269.063z"/>
			<path fill="#AEADB3" d="M323.846,269.061c0,0.195,0,0.379-0.009,0.574c-0.245-18.251-11.578-30.638-23.48-28.201
				c-10.111,2.07-17.284,14.479-17.419,28.054c-0.005-0.145-0.005-0.281-0.005-0.426c0-13.755,7.213-26.441,17.424-28.606
				C312.397,237.904,323.846,250.518,323.846,269.061z"/>
			<path opacity="0.75" fill="#AEADB3" d="M323.846,270.21c0,18.554-11.45,31.074-23.489,28.436
				c-10.211-2.238-17.424-14.968-17.424-28.732c0-0.145,0-0.29,0.005-0.426c0.135,13.584,7.307,26.036,17.419,28.18
				c11.902,2.522,23.235-9.772,23.48-28.032C323.846,269.819,323.846,270.014,323.846,270.21z"/>
		</g>
		<path fill="#AEADB3" d="M300.357,292.587L300.357,292.587c-2.424-0.423-4.344-3.309-4.344-6.427v-32.199
			c0-3.118,1.92-5.975,4.344-6.361l0,0c2.515-0.4,4.643,1.989,4.643,5.321v34.414C305,290.669,302.872,293.025,300.357,292.587z"/>
		<path fill="#AEADB3" d="M305.003,252.926v34.405c0,3.338-2.132,5.698-4.643,5.26c-0.254-0.044-0.5-0.116-0.745-0.217
			c2.123-0.105,3.803-2.29,3.803-5.25v-34.015c0-1.65-0.523-3.078-1.366-4.031c-0.658-0.751-1.504-1.21-2.437-1.268
			c0.245-0.097,0.491-0.166,0.745-0.206c1.24-0.197,2.395,0.286,3.246,1.247C304.467,249.814,305.003,251.257,305.003,252.926z"/>
		<path fill="#AEADB3" d="M300.692,250.836c-0.268-0.065-0.551-0.052-0.842,0.052c-1.023,0.364-1.864,1.899-2.025,3.686
			c-0.046,0.511-0.04,1.004,0.009,1.465c0.052,0.485-0.285,0.845-0.468,0.486c-0.453-0.888-0.684-2.149-0.556-3.539
			c0.166-1.795,0.981-3.358,1.994-3.805c0.823-0.363,1.599-0.016,2.154,0.79C301.172,250.282,300.975,250.905,300.692,250.836z"/>
	</g>
	<g id="Capa_1_copia_9_3_">
		<g>
			<path fill="#898989" d="M389.292,308.634c-0.687,0-1.346-0.013-1.99-0.034l-0.969-0.031v-79.014l0.969-0.031
				c0.645-0.021,1.304-0.034,1.99-0.034c19.536,0,22.041,21.147,22.041,39.571C411.333,288.208,409.63,308.634,389.292,308.634z"/>
			<g>
				<path fill="#636363" d="M389.292,230.492c17.208,0,21.042,17.269,21.042,38.571s-2.5,38.571-21.042,38.571
					c-0.676,0-1.324-0.013-1.958-0.033v-77.076C387.968,230.505,388.616,230.492,389.292,230.492 M389.292,228.492
					c-0.697,0-1.366,0.014-2.021,0.034l-1.937,0.061v1.938v77.076v1.938l1.937,0.061c0.655,0.021,1.324,0.034,2.021,0.034
					c21.261,0,23.042-20.942,23.042-40.571c0-12.668-1.348-21.593-4.241-28.088C404.403,232.692,398.077,228.492,389.292,228.492
					L389.292,228.492z"/>
			</g>
		</g>
		<g id="Capa_3_copia_7_3_">
			<g>
				<path fill="#AEADB3" stroke="#7F7F7F" stroke-width="2" stroke-miterlimit="10" d="M379.461,306.435
					c-6.989-5.55-11.309-21.717-11.309-37.372s4.32-31.821,11.309-37.371c9.942-7.895,21.773,7.231,21.773,37.371
					S389.404,314.33,379.461,306.435z"/>
			</g>
			<path opacity="0.75" fill="#AEADB3" d="M393.777,269.063c0,19.897-7.357,31.708-14.316,27.624
				c-5.37-3.152-8.901-15.253-8.901-27.624c0-12.371,3.53-24.471,8.901-27.624C386.42,237.355,393.777,249.166,393.777,269.063z"/>
			<path fill="#AEADB3" d="M393.776,269.061c0,0.209,0,0.406-0.006,0.616c-0.165-19.555-7.432-31.193-14.309-27.294
				c-5.319,3.015-8.834,14.85-8.898,27.062c-0.002-0.13-0.002-0.253-0.002-0.383c0-12.367,3.531-24.472,8.901-27.624
				C386.422,237.352,393.776,249.17,393.776,269.061z"/>
			<path opacity="0.75" fill="#AEADB3" d="M393.776,270.293c0,19.904-7.354,31.562-14.315,27.337
				c-5.369-3.259-8.901-15.427-8.901-27.802c0-0.13,0-0.26,0.002-0.383c0.064,12.221,3.579,24.118,8.898,27.24
				c6.877,4.037,14.144-7.444,14.309-27.008C393.776,269.874,393.776,270.084,393.776,270.293z"/>
		</g>
		<path fill="#AEADB3" d="M379.461,291.779L379.461,291.779c-1.317-0.636-2.34-3.549-2.34-6.505v-30.53
			c0-2.957,1.024-5.827,2.34-6.407l0,0c1.395-0.614,2.599,1.542,2.599,4.825v33.902
			C382.059,290.347,380.855,292.452,379.461,291.779z"/>
		<path fill="#AEADB3" d="M382.06,253.162v33.9c0,3.29-1.2,5.39-2.6,4.72c-0.18-0.09-0.35-0.21-0.52-0.38
			c0.67-0.76,1.12-2.32,1.12-4.34v-33.9c0-2.04-0.46-3.65-1.16-4.42c0.18-0.18,0.37-0.31,0.56-0.4c0.16-0.07,0.32-0.11,0.48-0.11
			C381.12,248.232,382.06,250.262,382.06,253.162z"/>
		<path fill="#AEADB3" d="M379.429,250.698c-0.114-0.024-0.235-0.005-0.358,0.063c-0.432,0.237-0.784,1.091-0.851,2.051
			c-0.019,0.274-0.017,0.537,0.004,0.782c0.022,0.258-0.119,0.459-0.195,0.273c-0.188-0.46-0.283-1.123-0.23-1.866
			c0.068-0.961,0.407-1.828,0.831-2.112c0.347-0.232,0.676-0.081,0.913,0.33C379.634,250.378,379.55,250.724,379.429,250.698z"/>
	</g>
	<g id="Capa_9_copia_2">
		<path fill="#898989" stroke="#636363" stroke-width="2" stroke-miterlimit="10" d="M449.609,309.635h-6.047
			c-2.232,0-4.058-1.826-4.058-4.058v-72.366c0-2.232,1.826-4.058,4.058-4.058h6.047c2.232,0,4.058,1.826,4.058,4.058v72.366
			C453.667,307.808,451.841,309.635,449.609,309.635z"/>
	</g>
	<g id="Capa_1_copia_9_2_">
		<g>
			<path fill="#898989" d="M505.958,308.634c-20.338,0-22.041-20.426-22.041-39.571c0-18.424,2.505-39.571,22.041-39.571
				c0.687,0,1.346,0.013,1.99,0.034l0.969,0.031v79.014l-0.969,0.031C507.304,308.621,506.645,308.634,505.958,308.634z"/>
			<g>
				<path fill="#636363" d="M505.958,230.492c0.676,0,1.324,0.013,1.958,0.033v77.076c-0.635,0.02-1.283,0.033-1.958,0.033
					c-18.542,0-21.042-17.269-21.042-38.571S488.75,230.492,505.958,230.492 M505.958,228.492c-8.785,0-15.111,4.2-18.801,12.483
					c-2.893,6.495-4.241,15.42-4.241,28.088c0,19.629,1.781,40.571,23.042,40.571c0.697,0,1.366-0.014,2.021-0.034l1.937-0.061
					v-1.938v-77.076v-1.938l-1.937-0.061C507.324,228.505,506.656,228.492,505.958,228.492L505.958,228.492z"/>
			</g>
		</g>
		<g id="Capa_3_copia_7_2_">
			<g>
				<path fill="#AEADB3" stroke="#7F7F7F" stroke-width="2" stroke-miterlimit="10" d="M515.789,306.435
					c6.989-5.55,11.309-21.717,11.309-37.372s-4.32-31.821-11.309-37.371c-9.942-7.895-21.773,7.231-21.773,37.371
					S505.846,314.33,515.789,306.435z"/>
			</g>
			<path opacity="0.75" fill="#AEADB3" d="M501.473,269.063c0,19.897,7.357,31.708,14.316,27.624
				c5.37-3.152,8.901-15.253,8.901-27.624c0-12.371-3.53-24.471-8.901-27.624C508.83,237.355,501.473,249.166,501.473,269.063z"/>
			<path fill="#AEADB3" d="M501.474,269.061c0,0.209,0,0.406,0.006,0.616c0.165-19.555,7.432-31.193,14.309-27.294
				c5.319,3.015,8.834,14.85,8.898,27.062c0.002-0.13,0.002-0.253,0.002-0.383c0-12.367-3.531-24.472-8.901-27.624
				C508.828,237.352,501.474,249.17,501.474,269.061z"/>
			<path opacity="0.75" fill="#AEADB3" d="M501.474,270.293c0,19.904,7.354,31.562,14.315,27.337
				c5.369-3.259,8.901-15.427,8.901-27.802c0-0.13,0-0.26-0.002-0.383c-0.064,12.221-3.579,24.118-8.898,27.24
				c-6.877,4.037-14.144-7.444-14.309-27.008C501.474,269.874,501.474,270.084,501.474,270.293z"/>
		</g>
		<path fill="#AEADB3" d="M515.789,291.779L515.789,291.779c1.317-0.635,2.34-3.549,2.34-6.505v-30.53
			c0-2.957-1.024-5.827-2.34-6.407v0c-1.395-0.614-2.599,1.542-2.599,4.825v33.902C513.191,290.347,514.395,292.452,515.789,291.779
			z"/>
		<path fill="#AEADB3" d="M513.19,253.162v33.9c0,3.29,1.2,5.39,2.6,4.72c0.18-0.09,0.35-0.21,0.52-0.38
			c-0.67-0.76-1.12-2.32-1.12-4.34v-33.9c0-2.04,0.46-3.65,1.16-4.42c-0.18-0.18-0.37-0.31-0.56-0.4c-0.16-0.07-0.32-0.11-0.48-0.11
			C514.13,248.232,513.19,250.262,513.19,253.162z"/>
		<path fill="#AEADB3" d="M517.429,251.698c-0.114-0.024-0.235-0.005-0.358,0.063c-0.432,0.237-0.784,1.091-0.851,2.051
			c-0.019,0.274-0.017,0.537,0.004,0.782c0.022,0.258-0.119,0.459-0.195,0.273c-0.188-0.46-0.283-1.123-0.23-1.866
			c0.068-0.961,0.407-1.828,0.831-2.112c0.347-0.232,0.676-0.081,0.913,0.33C517.634,251.378,517.55,251.724,517.429,251.698z"/>
	</g>
	<g id="Capa_1_copia_9_1_">
		<g>
			<path fill="#898989" d="M585.458,308.634c-17.208,0-31.208-17.751-31.208-39.571s14-39.571,31.208-39.571
				c17.209,0,31.209,17.751,31.209,39.571S602.667,308.634,585.458,308.634z"/>
			<g>
				<path fill="#636363" d="M585.458,230.492c16.684,0,30.208,17.269,30.208,38.571c0,21.302-13.525,38.571-30.208,38.571
					s-30.208-17.269-30.208-38.571C555.25,247.761,568.775,230.492,585.458,230.492 M585.458,228.492
					c-17.76,0-32.208,18.2-32.208,40.571s14.449,40.571,32.208,40.571c17.76,0,32.208-18.2,32.208-40.571
					S603.218,228.492,585.458,228.492L585.458,228.492z"/>
			</g>
		</g>
		<g id="Capa_3_copia_7_1_">
			<g>
				<path fill="#AEADB3" stroke="#7F7F7F" stroke-width="2" stroke-miterlimit="10" d="M596.558,307.763
					c13.468-3.862,22.591-20.933,22.591-38.7s-9.123-34.838-22.591-38.7c-16.826-4.825-33.959,11.991-33.959,38.7
					S579.732,312.588,596.558,307.763z"/>
			</g>
			<path opacity="0.75" fill="#AEADB3" d="M573.069,269.063c0,18.548,11.454,31.157,23.489,28.606
				c10.214-2.165,17.424-14.847,17.424-28.606s-7.211-26.441-17.424-28.606C584.523,237.907,573.069,250.515,573.069,269.063z"/>
			<path fill="#AEADB3" d="M573.07,269.061c0,0.195,0,0.379,0.009,0.574c0.245-18.25,11.578-30.638,23.48-28.201
				c10.111,2.07,17.284,14.479,17.419,28.054c0.005-0.145,0.005-0.281,0.005-0.426c0-13.755-7.213-26.441-17.424-28.606
				C584.52,237.904,573.07,250.518,573.07,269.061z"/>
			<path opacity="0.75" fill="#AEADB3" d="M573.07,270.21c0,18.554,11.45,31.074,23.489,28.436
				c10.211-2.238,17.424-14.968,17.424-28.732c0-0.145,0-0.29-0.005-0.426c-0.135,13.584-7.307,26.036-17.419,28.18
				c-11.902,2.522-23.235-9.772-23.48-28.032C573.07,269.819,573.07,270.014,573.07,270.21z"/>
		</g>
		<path fill="#AEADB3" d="M596.559,292.587L596.559,292.587c2.424-0.423,4.344-3.309,4.344-6.427v-32.199
			c0-3.118-1.92-5.975-4.344-6.361h0c-2.515-0.4-4.643,1.989-4.643,5.321v34.414C591.916,290.669,594.045,293.025,596.559,292.587z"
			/>
		<path fill="#AEADB3" d="M591.914,252.926v34.405c0,3.338,2.132,5.698,4.643,5.26c0.254-0.044,0.5-0.116,0.745-0.217
			c-2.123-0.105-3.803-2.29-3.803-5.25v-34.015c0-1.65,0.523-3.078,1.366-4.031c0.658-0.751,1.504-1.21,2.437-1.268
			c-0.245-0.097-0.491-0.166-0.745-0.206c-1.24-0.197-2.395,0.286-3.246,1.247C592.449,249.814,591.914,251.257,591.914,252.926z"/>
		<path fill="#AEADB3" d="M597.785,250.836c-0.268-0.065-0.551-0.052-0.842,0.052c-1.023,0.364-1.864,1.899-2.025,3.686
			c-0.046,0.511-0.04,1.004,0.009,1.465c0.052,0.485-0.285,0.845-0.468,0.486c-0.453-0.888-0.684-2.149-0.556-3.539
			c0.166-1.795,0.981-3.358,1.994-3.805c0.823-0.363,1.599-0.016,2.154,0.79C598.265,250.282,598.068,250.905,597.785,250.836z"/>
	</g>
	<g id="Capa_1_copia_9">
		<g id="Capa_3_copia_7">
			<g>
				<path fill="#898989" d="M674.458,308.635c-19.965,0-36.208-17.752-36.208-39.572s16.243-39.571,36.208-39.571
					c19.966,0,36.209,17.751,36.209,39.571S694.424,308.635,674.458,308.635z"/>
				<g>
					<path fill="#636363" d="M674.458,230.492c19.445,0,35.208,17.269,35.208,38.571s-15.763,38.571-35.208,38.571
						c-19.445,0-35.208-17.269-35.208-38.571S655.013,230.492,674.458,230.492 M674.458,228.492
						c-20.517,0-37.208,18.2-37.208,40.571s16.692,40.571,37.208,40.571s37.208-18.2,37.208-40.571S694.975,228.492,674.458,228.492
						L674.458,228.492z"/>
				</g>
			</g>
			<g>
				<path fill="#AEADB3" stroke="#7F7F7F" stroke-width="2" stroke-miterlimit="10" d="M679.458,308.635
					c19.965,0,36.208-17.752,36.208-39.572s-16.243-39.571-36.208-39.571s-36.208,17.751-36.208,39.571
					S659.493,308.635,679.458,308.635z"/>
			</g>
			<ellipse opacity="0.75" fill="#AEADB3" cx="679.458" cy="269.063" rx="26.7" ry="29.25"/>
			<path fill="#AEADB3" d="M652.76,269.062c0,0.17,0,0.33,0.009,0.5c0.237-15.92,12.095-28.75,26.691-28.75
				c14.587,0,26.453,12.83,26.69,28.75c0.009-0.17,0.009-0.33,0.009-0.5c0-16.15-11.958-29.25-26.7-29.25
				C664.709,239.812,652.76,252.912,652.76,269.062z"/>
			<path opacity="0.75" fill="#AEADB3" d="M652.76,270.062c0,16.16,11.949,29.25,26.7,29.25c14.742,0,26.7-13.09,26.7-29.25
				c0-0.17,0-0.34-0.009-0.5c-0.237,15.93-12.104,28.75-26.69,28.75c-14.596,0-26.453-12.82-26.691-28.75
				C652.76,269.722,652.76,269.892,652.76,270.062z"/>
		</g>
		<path fill="#AEADB3" d="M679.46,293.117L679.46,293.117c3.295,0,5.99-2.696,5.99-5.99v-34.019c0-3.295-2.696-5.99-5.99-5.99l0,0
			c-3.295,0-5.99,2.696-5.99,5.99v34.019C673.469,290.421,676.165,293.117,679.46,293.117z"/>
		<path fill="#AEADB3" d="M673.467,253.112v34.01c0,3.3,2.7,6,5.99,6c0.34,0,0.67-0.03,1-0.09c-2.82-0.48-4.99-2.95-4.99-5.91
			v-34.01c0-1.65,0.67-3.15,1.76-4.23c0.86-0.86,1.98-1.46,3.23-1.67c-0.33-0.06-0.66-0.09-1-0.09c-1.64,0-3.14,0.67-4.23,1.76
			C674.137,249.962,673.467,251.462,673.467,253.112z"/>
		<path fill="#AEADB3" d="M681.898,250.471c-0.356-0.104-0.735-0.129-1.125-0.063c-1.386,0.233-2.541,1.715-2.765,3.556
			c-0.064,0.527-0.056,1.042,0.013,1.528c0.072,0.511-0.396,0.853-0.651,0.46c-0.635-0.977-0.96-2.327-0.779-3.771
			c0.233-1.861,1.37-3.375,2.765-3.683c1.117-0.247,2.158,0.227,2.895,1.131C682.534,249.974,682.273,250.58,681.898,250.471z"/>
	</g>
</g>
</svg>
